<svg width="32" height="32" viewBox="0 0 32 32" fill="none" xmlns="http://www.w3.org/2000/svg">
<g id="solar:copy-broken">
<g id="Group">
<path id="Vector" d="M27.9973 13.3333C27.9813 10.4333 27.8533 8.86266 26.828 7.83866C25.6573 6.66666 23.7707 6.66666 20 6.66666H16C12.2293 6.66666 10.3427 6.66666 9.172 7.83866C8 9.00932 8 10.896 8 14.6667V21.3333C8 25.104 8 26.9907 9.172 28.1613C10.3427 29.3333 12.2293 29.3333 16 29.3333H20C23.7707 29.3333 25.6573 29.3333 26.828 28.1613C28 26.9907 28 25.104 28 21.3333V20" stroke="white" stroke-width="2" stroke-linecap="round"/>
<path id="Vector_2" d="M4 13.3333V21.3333C4 22.3942 4.42143 23.4116 5.17157 24.1617C5.92172 24.9119 6.93913 25.3333 8 25.3333M24 6.66666C24 5.60579 23.5786 4.58837 22.8284 3.83823C22.0783 3.08808 21.0609 2.66666 20 2.66666H14.6667C9.63867 2.66666 7.124 2.66666 5.56267 4.22932C4.69067 5.09999 4.30533 6.26666 4.136 7.99999" stroke="white" stroke-width="2" stroke-linecap="round"/>
</g>
</g>
</svg>
