<svg width="24" height="24" viewBox="0 0 24 24" fill="none" xmlns="http://www.w3.org/2000/svg">
<g id="clarity:paste-line" clip-path="url(#clip0_516_430)">
<path id="Vector" d="M19.9999 8H17.3333V9.33333H19.9999V10.6667H21.3333V9.33333C21.3333 8.97971 21.1928 8.64057 20.9427 8.39052C20.6927 8.14048 20.3535 8 19.9999 8Z" fill="white"/>
<path id="Vector_2" d="M20 12H21.3333V16H20V12Z" fill="white"/>
<path id="Vector_3" d="M20 20H18.6666V21.3333H20C20.3536 21.3333 20.6927 21.1929 20.9428 20.9428C21.1928 20.6928 21.3333 20.3536 21.3333 20V17.3333H20V20Z" fill="white"/>
<path id="Vector_4" d="M16 14.6667V3.99999C16 3.64637 15.8595 3.30723 15.6094 3.05718C15.3594 2.80713 15.0202 2.66666 14.6666 2.66666H3.99996C3.64634 2.66666 3.3072 2.80713 3.05715 3.05718C2.8071 3.30723 2.66663 3.64637 2.66663 3.99999V14.6667C2.66663 15.0203 2.8071 15.3594 3.05715 15.6095C3.3072 15.8595 3.64634 16 3.99996 16H14.6666C15.0202 16 15.3594 15.8595 15.6094 15.6095C15.8595 15.3594 16 15.0203 16 14.6667ZM3.99996 3.99999H14.6666V14.6667H3.99996V3.99999Z" fill="white"/>
<path id="Vector_5" d="M13.3334 20H17.3334V21.3333H13.3334V20Z" fill="white"/>
<path id="Vector_6" d="M9.33333 17.3333H8V20C8 20.3536 8.14048 20.6928 8.39052 20.9428C8.64057 21.1929 8.97971 21.3333 9.33333 21.3333H12V20H9.33333V17.3333Z" fill="white"/>
</g>
<defs>
<clipPath id="clip0_516_430">
<rect width="24" height="24" fill="white"/>
</clipPath>
</defs>
</svg>
