<svg width="33" height="32" viewBox="0 0 33 32" fill="none" xmlns="http://www.w3.org/2000/svg">
<g id="ph:eye-bold" clip-path="url(#clip0_221_1527)">
<g id="Vector">
<path d="M31.8745 15.3912C31.8283 15.29 30.7333 12.8587 28.3145 10.44C25.0783 7.20875 20.9995 5.5 16.4995 5.5C11.9995 5.5 7.92076 7.20875 4.68826 10.44C2.26951 12.8587 1.17451 15.29 1.12451 15.3912C1.03983 15.5832 0.996094 15.7908 0.996094 16.0006C0.996094 16.2105 1.03983 16.418 1.12451 16.61C1.17076 16.7125 2.26576 19.1425 4.68576 21.5613C7.92076 24.7925 11.9995 26.5 16.4995 26.5C20.9995 26.5 25.0783 24.7925 28.3095 21.5613C30.7295 19.1425 31.8245 16.7125 31.8708 16.61C31.956 16.4183 32.0004 16.2109 32.0011 16.001C32.0017 15.7912 31.9586 15.5835 31.8745 15.3912ZM26.117 19.5163C23.4333 22.1588 20.1983 23.5 16.4995 23.5C12.8008 23.5 9.56576 22.1587 6.88576 19.515C5.8312 18.4715 4.92406 17.2889 4.18951 16C4.92428 14.7116 5.83139 13.5294 6.88576 12.4862C9.56701 9.84125 12.8008 8.5 16.4995 8.5C20.1983 8.5 23.432 9.84125 26.1133 12.4862C27.1677 13.5293 28.0749 14.7115 28.8095 16C28.0748 17.2889 27.1677 18.4714 26.1133 19.515L26.117 19.5163ZM16.4995 10.5C15.4117 10.5 14.3483 10.8226 13.4439 11.4269C12.5394 12.0313 11.8345 12.8902 11.4182 13.8952C11.0019 14.9002 10.893 16.0061 11.1052 17.073C11.3174 18.1399 11.8412 19.1199 12.6104 19.8891C13.3796 20.6583 14.3596 21.1821 15.4265 21.3943C16.4934 21.6065 17.5993 21.4976 18.6043 21.0813C19.6093 20.6651 20.4682 19.9601 21.0726 19.0556C21.6769 18.1512 21.9995 17.0878 21.9995 16C21.9979 14.5418 21.4179 13.1438 20.3868 12.1127C19.3557 11.0816 17.9577 10.5017 16.4995 10.5ZM16.4995 18.5C16.0051 18.5 15.5217 18.3534 15.1106 18.0787C14.6995 17.804 14.379 17.4135 14.1898 16.9567C14.0006 16.4999 13.9511 15.9972 14.0476 15.5123C14.144 15.0273 14.3821 14.5819 14.7317 14.2322C15.0814 13.8826 15.5268 13.6445 16.0118 13.548C16.4967 13.4516 16.9994 13.5011 17.4562 13.6903C17.913 13.8795 18.3035 14.2 18.5782 14.6111C18.8529 15.0222 18.9995 15.5055 18.9995 16C18.9995 16.663 18.7361 17.2989 18.2673 17.7678C17.7984 18.2366 17.1626 18.5 16.4995 18.5Z" fill="white"/>
<path d="M31.8745 15.3912C31.8283 15.29 30.7333 12.8587 28.3145 10.44C25.0783 7.20875 20.9995 5.5 16.4995 5.5C11.9995 5.5 7.92076 7.20875 4.68826 10.44C2.26951 12.8587 1.17451 15.29 1.12451 15.3912C1.03983 15.5832 0.996094 15.7908 0.996094 16.0006C0.996094 16.2105 1.03983 16.418 1.12451 16.61C1.17076 16.7125 2.26576 19.1425 4.68576 21.5613C7.92076 24.7925 11.9995 26.5 16.4995 26.5C20.9995 26.5 25.0783 24.7925 28.3095 21.5613C30.7295 19.1425 31.8245 16.7125 31.8708 16.61C31.956 16.4183 32.0004 16.2109 32.0011 16.001C32.0017 15.7912 31.9586 15.5835 31.8745 15.3912ZM26.117 19.5163C23.4333 22.1588 20.1983 23.5 16.4995 23.5C12.8008 23.5 9.56576 22.1587 6.88576 19.515C5.8312 18.4715 4.92406 17.2889 4.18951 16C4.92428 14.7116 5.83139 13.5294 6.88576 12.4862C9.56701 9.84125 12.8008 8.5 16.4995 8.5C20.1983 8.5 23.432 9.84125 26.1133 12.4862C27.1677 13.5293 28.0749 14.7115 28.8095 16C28.0748 17.2889 27.1677 18.4714 26.1133 19.515L26.117 19.5163ZM16.4995 10.5C15.4117 10.5 14.3483 10.8226 13.4439 11.4269C12.5394 12.0313 11.8345 12.8902 11.4182 13.8952C11.0019 14.9002 10.893 16.0061 11.1052 17.073C11.3174 18.1399 11.8412 19.1199 12.6104 19.8891C13.3796 20.6583 14.3596 21.1821 15.4265 21.3943C16.4934 21.6065 17.5993 21.4976 18.6043 21.0813C19.6093 20.6651 20.4682 19.9601 21.0726 19.0556C21.6769 18.1512 21.9995 17.0878 21.9995 16C21.9979 14.5418 21.4179 13.1438 20.3868 12.1127C19.3557 11.0816 17.9577 10.5017 16.4995 10.5ZM16.4995 18.5C16.0051 18.5 15.5217 18.3534 15.1106 18.0787C14.6995 17.804 14.379 17.4135 14.1898 16.9567C14.0006 16.4999 13.9511 15.9972 14.0476 15.5123C14.144 15.0273 14.3821 14.5819 14.7317 14.2322C15.0814 13.8826 15.5268 13.6445 16.0118 13.548C16.4967 13.4516 16.9994 13.5011 17.4562 13.6903C17.913 13.8795 18.3035 14.2 18.5782 14.6111C18.8529 15.0222 18.9995 15.5055 18.9995 16C18.9995 16.663 18.7361 17.2989 18.2673 17.7678C17.7984 18.2366 17.1626 18.5 16.4995 18.5Z" fill="url(#paint0_linear_221_1527)"/>
</g>
</g>
<defs>
<linearGradient id="paint0_linear_221_1527" x1="30.0079" y1="5.5" x2="-0.158536" y2="0.917445" gradientUnits="userSpaceOnUse">
<stop stop-color="#42FFD8"/>
<stop offset="0.29" stop-color="#00C8FB"/>
<stop offset="0.68" stop-color="#2791FA"/>
<stop offset="1" stop-color="#007CF9"/>
</linearGradient>
<clipPath id="clip0_221_1527">
<rect width="32" height="32" fill="white" transform="translate(0.5)"/>
</clipPath>
</defs>
</svg>
