<svg width="30" height="30" viewBox="0 0 30 30" fill="none" xmlns="http://www.w3.org/2000/svg">
<path d="M17.1891 0.890675C17.6786 1.04422 18.1968 1.13379 18.6478 1.36091C20.2345 2.16383 21.0886 3.47856 21.1749 5.26033C21.2133 6.04726 21.1909 6.83738 21.1813 7.6243C21.1749 8.28967 20.6791 8.77909 20.0457 8.7695C19.4251 8.7631 18.9453 8.27687 18.9357 7.6243C18.9261 6.93015 18.9357 6.23599 18.9357 5.54184C18.9325 4.09914 17.9761 3.14588 16.5334 3.14268C12.8643 3.14268 9.19515 3.14268 5.52924 3.14268C4.07055 3.14268 3.1173 4.09914 3.1173 5.55783C3.1173 12.0483 3.1173 18.5389 3.1173 25.0326C3.1173 26.5104 4.06736 27.4541 5.55163 27.4541C9.20155 27.4541 12.8515 27.4541 16.5014 27.4541C17.9952 27.4541 18.9357 26.5072 18.9389 25.007C18.9389 24.3512 18.9357 23.6922 18.9389 23.0365C18.9421 22.3263 19.4187 21.8241 20.0713 21.8273C20.7143 21.8337 21.1909 22.3295 21.1845 23.0237C21.1781 23.9609 21.2229 24.9046 21.1205 25.8323C20.887 27.9467 19.0285 29.6165 16.9012 29.6933C16.2071 29.7189 15.5129 29.7029 14.8188 29.7029C11.7031 29.7029 8.59056 29.7029 5.47486 29.7029C3.44678 29.7029 1.76097 28.5417 1.1244 26.664C0.961253 26.1842 0.874883 25.6563 0.874883 25.1477C0.858889 18.5708 0.858893 11.9972 0.868489 5.42028C0.868489 3.12349 2.46473 1.29693 4.73592 0.935459C4.78071 0.929062 4.81909 0.903471 4.86068 0.884277C8.97123 0.884277 13.0786 0.884277 17.1891 0.884277V0.890675Z" fill="url(#paint0_linear_60_3118)"/>
<path d="M29.63 15.9735C29.4221 16.7572 28.907 17.3298 28.3376 17.8736C27.6531 18.5294 27.0005 19.2139 26.3192 19.8761C25.9449 20.2408 25.4331 20.292 24.9948 20.0456C24.5694 19.8089 24.3295 19.3387 24.4574 18.8557C24.5214 18.6157 24.6717 18.3758 24.8445 18.1935C25.3787 17.6273 25.9385 17.0899 26.5495 16.4821H26.1592C21.8343 16.4821 17.5095 16.4821 13.1846 16.4821C12.8103 16.4821 12.4712 16.4117 12.2121 16.1302C11.8986 15.7911 11.8091 15.3913 11.9754 14.9562C12.1418 14.5244 12.4744 14.2877 12.9319 14.2365C13.0438 14.2237 13.1558 14.2301 13.2678 14.2301C17.5638 14.2301 21.8631 14.2301 26.1592 14.2301H26.5111C26.4311 14.1373 26.3799 14.0733 26.3256 14.019C25.7977 13.488 25.2539 12.9697 24.7389 12.4195C24.1215 11.7606 24.435 10.7433 25.3051 10.545C25.6794 10.4586 26.0249 10.5514 26.2936 10.8169C27.202 11.7126 28.1233 12.5955 28.9838 13.5359C29.2813 13.859 29.4157 14.3325 29.6236 14.7355V15.9735H29.63Z" fill="url(#paint1_linear_60_3118)"/>
<defs>
<linearGradient id="paint0_linear_60_3118" x1="22.3201" y1="0.0941555" x2="-2.37197" y2="33.324" gradientUnits="userSpaceOnUse">
<stop stop-color="#42FFD8"/>
<stop offset="0.29" stop-color="#00C8FB"/>
<stop offset="0.68" stop-color="#2791FA"/>
<stop offset="1" stop-color="#007CF9"/>
</linearGradient>
<linearGradient id="paint1_linear_60_3118" x1="28.7663" y1="4.88619" x2="4.07421" y2="38.1129" gradientUnits="userSpaceOnUse">
<stop stop-color="#42FFD8"/>
<stop offset="0.29" stop-color="#00C8FB"/>
<stop offset="0.68" stop-color="#2791FA"/>
<stop offset="1" stop-color="#007CF9"/>
</linearGradient>
</defs>
</svg>
