<svg width="111" height="49" viewBox="0 0 111 49" fill="none" xmlns="http://www.w3.org/2000/svg">
<path d="M30.848 15.9634C31.4773 15.7697 32.5714 15.7536 33.3299 16.4217C33.3299 15.7084 32.7135 15.0758 32.4972 14.9951C32.2164 15.0435 31.2578 15.4599 30.8447 15.9634H30.848Z" fill="white"/>
<path d="M36.8286 7.51338C36.7479 7.26164 39.3202 7.25518 39.3202 8.86248C39.3202 9.94047 37.7839 10.4504 37.7839 11.5704C37.7839 12.09 38.3455 12.4741 38.5165 12.4741C38.1196 10.6763 39.7559 11.6188 40.1981 11.9544C39.3202 9.53703 41.2987 9.55317 41.105 8.44613C40.9694 7.67153 39.2492 7.90714 38.6263 7.51338C37.5225 6.81947 36.2153 4.11482 35.3568 6.81947C36.9609 8.31058 36.0281 10.5021 33.9884 10.5021C33.9884 10.5021 33.9787 10.8248 33.9948 10.8506C36.4251 10.7312 37.2707 8.9464 36.8286 7.51661V7.51338Z" fill="white"/>
<path d="M8.47814 11.9547C8.9203 11.6191 10.5566 10.6799 10.1629 12.4744C10.334 12.4744 10.8955 12.0935 10.8955 11.5707C10.8955 10.4507 9.35925 9.94077 9.35925 8.86278C9.35925 7.25225 11.9283 7.25871 11.8509 7.51368C11.4055 8.94347 12.2543 10.7315 14.6846 10.8477C14.7008 10.8219 14.6911 10.4991 14.6911 10.4991C12.6545 10.4991 11.7218 8.30442 13.3258 6.81654C12.4641 4.11189 11.1602 6.81654 10.0564 7.51045C9.43348 7.90098 7.71322 7.6686 7.57766 8.4432C7.38401 9.55024 9.35925 9.53733 8.48459 11.9515L8.47814 11.9547Z" fill="white"/>
<path d="M15.3782 16.4217C16.1399 15.7536 17.234 15.7697 17.8602 15.9634C17.4503 15.4567 16.4885 15.0435 16.2077 14.9951C15.9915 15.0758 15.375 15.7084 15.375 16.4217H15.3782Z" fill="white"/>
<path d="M25.5223 1.44592L24.3378 0L23.1533 1.44592L24.3378 2.96608L25.5223 1.44592Z" fill="white"/>
<path d="M32.2902 5.8159L31.4478 4.78955L30.6055 5.8159L31.4478 6.81965L32.2902 5.8159Z" fill="white"/>
<path d="M18.0736 5.8159L17.2312 4.78955L16.3888 5.8159L17.2312 6.81965L18.0736 5.8159Z" fill="white"/>
<path d="M17.3732 38.4007C17.8509 38.2232 18.2672 37.9037 18.5545 37.4809C18.3608 37.3969 18.1187 36.9257 18.151 36.277C17.7508 36.461 17.2376 36.3996 16.9762 36.1995C16.4856 35.7122 17.073 35.1086 17.1989 34.6923C16.1822 34.0274 16.4404 33.5433 16.7922 33.1915C17.0569 32.972 17.3635 32.8074 17.6959 32.7074C18.0251 32.6073 18.3705 32.5718 18.7126 32.6041L18.8127 32.6105C18.7707 32.333 18.7417 32.0522 18.7417 31.7617V31.4067L18.7126 31.4002C17.5475 31.0388 16.4049 31.1388 15.5077 32.0457C14.5039 33.0592 14.2586 33.8822 12.9902 34.3792C13.4808 35.2119 15.5141 34.4276 16.2468 34.405C16.1855 35.6734 14.5588 36.319 14.0521 36.6449C14.5427 37.1323 15.9047 36.7966 16.689 36.5933C16.6696 37.0677 16.7503 37.313 15.8724 38.4814C16.3662 38.6105 16.8891 38.5847 17.37 38.4071L17.3732 38.4007Z" fill="white"/>
<path d="M33.1556 32.0428C32.2584 31.1359 31.1126 31.0358 29.9475 31.3973H29.9314V31.7588C29.9314 32.046 29.9023 32.3268 29.8604 32.6012H29.9475C30.2896 32.5689 30.6382 32.6012 30.9674 32.7044C31.2966 32.8077 31.6032 32.9691 31.8679 33.1886C32.2197 33.5404 32.4779 34.0245 31.4612 34.6894C31.5871 35.1057 32.1745 35.7093 31.6839 36.1966C31.4225 36.3967 30.9125 36.4548 30.5123 36.2741C30.5446 36.9228 30.3025 37.394 30.1089 37.4812C30.3993 37.9007 30.8125 38.2235 31.2934 38.401C31.771 38.5785 32.2971 38.6043 32.7909 38.4752C31.9098 37.3069 31.9937 37.0648 31.9744 36.5871C32.7587 36.7905 34.1207 37.1261 34.6112 36.6388C34.1045 36.3128 32.4779 35.6705 32.4165 34.3989C33.1524 34.4215 35.1825 35.2058 35.6731 34.3731C34.4015 33.876 34.1594 33.053 33.1556 32.0396V32.0428Z" fill="white"/>
<path d="M34.108 14.44C34.9762 14.5723 35.2506 15.1597 35.3022 15.3372C35.5959 15.0887 35.8702 14.2237 35.7637 13.6589C35.2635 10.9801 29.0408 12.7552 25.9069 11.6191C25.8456 12.4002 26.872 13.6492 27.8531 14.114C26.178 15.5696 24.674 18.497 24.3706 22.0763C24.0705 18.497 22.5632 15.5696 20.8882 14.114C21.8661 13.6525 22.8924 12.4002 22.8343 11.6224C19.7004 12.7584 13.4778 10.9865 12.9775 13.6622C12.871 14.2302 13.1454 15.0919 13.4391 15.3405C13.4939 15.1597 13.7683 14.5723 14.6333 14.4432C19.0162 13.7816 22.6762 20.5367 19.3745 23.2672C19.3228 23.3092 19.3519 23.3866 19.4196 23.3866H29.3249C29.3926 23.3866 29.4185 23.3092 29.37 23.2672C26.0651 20.5367 29.7251 13.7816 34.108 14.4432V14.44Z" fill="white"/>
<path d="M15.6593 10.851H18.8029C21.4463 10.851 22.6372 9.22757 22.9955 7.82037H25.684C26.0422 9.22757 27.2332 10.851 29.8765 10.851H33.0201C33.0201 10.851 33.5688 10.1054 33.7075 9.73428C34.2046 8.40455 33.5688 7.78487 32.6425 7.78487L31.4451 8.86931L30.2477 7.78487C29.3214 7.78487 28.6888 8.40455 29.1826 9.73428C29.2471 9.90212 29.3988 10.1539 29.5408 10.3733C28.4241 10.2184 27.0008 9.45672 26.6877 7.82037C26.6877 7.82037 27.5107 6.51001 27.7173 5.9807C28.4628 4.07647 27.5107 3.29541 26.1229 3.29541L24.3316 5.40297L22.5404 3.29541C21.1525 3.29541 20.2037 4.07647 20.946 5.9807C21.1525 6.51001 21.9756 7.82037 21.9756 7.82037C21.6625 9.45672 20.2392 10.2184 19.1224 10.3733C19.2677 10.1539 19.4194 9.90212 19.4807 9.73428C19.9777 8.40455 19.3419 7.78487 18.4156 7.78487L17.2182 8.86931L16.0208 7.78487C15.0945 7.78487 14.4619 8.40455 14.9557 9.73428C15.0945 10.1022 15.6432 10.8478 15.6432 10.8478L15.6593 10.851Z" fill="white"/>
<path d="M48.1635 20.5947C47.5568 20.9014 43.9968 22.57 39.4364 21.9535C39.4848 21.7373 39.5235 21.5178 39.5558 21.2951C42.5929 20.9336 45.0587 20.4172 46.6305 19.5426C48.4217 18.5453 49.206 16.1634 48.3023 14.3915C48.2797 14.3463 48.2152 14.3398 48.1829 14.3753C47.6859 14.9466 44.5681 18.3355 39.6591 19.3909C39.6461 19.1359 39.6235 18.8809 39.5913 18.6324C41.9764 17.2801 44.3067 15.7212 45.4137 14.2947C47.0888 12.1419 46.9339 9.39207 45.3395 7.99133C45.3072 7.96551 45.2588 7.96874 45.233 8.00102L45.2265 8.00747C44.723 8.84017 39.9979 16.4732 34.8113 19.7717C34.7468 19.8137 34.6822 19.8524 34.6209 19.8911C34.4724 19.9815 34.4563 20.1752 34.5822 20.2881C35.1793 20.8304 35.5504 21.5856 35.5504 22.4215C35.5504 23.8771 34.4273 25.0874 32.9458 25.3489C32.1906 25.4941 31.1029 25.4521 30.0604 25.1068C30.012 25.0907 29.9636 25.1229 29.9636 25.1681V29.7802C29.9636 29.8545 30.0766 29.8738 30.1024 29.8028C30.7382 28.1181 32.6392 27.763 33.4719 27.763C33.7721 29.564 34.3046 31.0519 34.9985 31.8555C36.1314 33.1594 37.9775 33.1401 38.7779 32.2396C38.8005 32.2105 38.7973 32.1718 38.7715 32.146C38.7683 32.146 38.765 32.1395 38.7586 32.1395C38.2874 31.8684 35.5956 30.2159 35.0566 27.5081C35.2696 27.4371 35.4762 27.3499 35.6763 27.2531C36.5445 28.6893 37.8097 29.9707 38.8296 30.4612C40.5402 31.281 42.1055 30.884 42.7994 29.6802C42.8252 29.6382 42.793 29.5866 42.7413 29.5801C41.6827 29.4962 38.4358 28.5635 37.0545 26.2978C37.2158 26.1525 37.3675 25.9976 37.5128 25.8394C38.9587 26.9433 41.0049 27.9147 42.4702 28.1148C44.184 28.3472 46.1237 27.8018 46.1722 25.8072C46.1722 25.7684 46.1367 25.7329 46.0947 25.7362C45.4847 25.7717 41.4535 25.9492 38.5778 24.2999C38.6779 24.1095 38.7715 23.9158 38.8554 23.719C38.8554 23.719 43.1964 24.7453 45.2555 24.4064C47.3018 24.0675 48.4992 22.5442 48.2668 20.6496C48.2604 20.6012 48.2055 20.5754 48.1603 20.598L48.1635 20.5947Z" fill="white"/>
<path d="M13.6777 31.8556C14.3716 31.052 14.9073 29.5641 15.2043 27.7632C16.037 27.7632 17.938 28.1214 18.5738 29.8029C18.6028 29.8739 18.7158 29.8546 18.7158 29.7803V25.1682C18.7158 25.1198 18.6674 25.0908 18.619 25.1037C17.5733 25.449 16.4856 25.491 15.7336 25.3458C14.2489 25.0811 13.129 23.874 13.129 22.4184C13.129 21.5793 13.5034 20.824 14.0972 20.285C14.2263 20.1721 14.207 19.9784 14.0617 19.888C13.9972 19.8493 13.9326 19.8106 13.8681 19.7686C8.68472 16.4766 3.96287 8.84674 3.45293 8.01082C3.43034 7.97532 3.38192 7.96564 3.34642 7.98823C3.34642 7.98823 3.33997 7.99146 3.33997 7.99468C1.74558 9.39542 1.59388 12.142 3.26896 14.298C4.37922 15.7213 6.70625 17.2802 9.09138 18.6325C9.05911 18.8843 9.03651 19.1393 9.0236 19.3942C4.11779 18.3421 1.00325 14.9564 0.49976 14.3819C0.467485 14.3432 0.399707 14.3496 0.377115 14.3948C-0.526587 16.1667 0.257697 18.5486 2.04896 19.5459C3.62076 20.4206 6.0898 20.9338 9.12366 21.2985C9.15593 21.5179 9.19789 21.7374 9.24307 21.9569C4.68584 22.5733 1.12912 20.9079 0.515897 20.5981C0.470712 20.5755 0.415845 20.6046 0.40939 20.653C0.180237 22.5507 1.37441 24.0709 3.42065 24.4098C5.47657 24.7487 9.81757 23.7255 9.81757 23.7255C9.90471 23.9224 9.99831 24.1161 10.0984 24.3065C7.22588 25.9558 3.19473 25.7815 2.5815 25.7427C2.53954 25.7427 2.50404 25.775 2.50404 25.8137C2.55245 27.8051 4.49219 28.3506 6.20599 28.1182C7.67128 27.9181 9.71752 26.9466 11.1634 25.846C11.3087 26.0074 11.4604 26.1591 11.6217 26.3043C10.2404 28.5733 6.9935 29.5028 5.93488 29.5867C5.88324 29.5932 5.85419 29.6448 5.88001 29.6868C6.57393 30.8874 8.13927 31.2876 9.84985 30.4678C10.8665 29.9772 12.1317 28.6991 12.9999 27.2597C13.2 27.3565 13.4066 27.4436 13.6196 27.5146C13.0806 30.2225 10.3888 31.875 9.91762 32.1461C9.88858 32.1623 9.87567 32.2042 9.8918 32.2365C9.8918 32.2397 9.89826 32.2429 9.89826 32.2494C10.6987 33.1499 12.548 33.1692 13.6777 31.8653V31.8556Z" fill="white"/>
<path d="M25.7131 39.3722C26.2585 37.8649 26.9492 36.3061 28.1305 36.3061C28.7147 36.3061 29.2246 36.858 29.6022 36.9193C29.6829 36.9354 29.7636 36.929 29.8378 36.8999C29.9121 36.8709 29.9766 36.816 30.0186 36.7482C30.1509 36.5255 30.0896 36.1124 30.0896 35.8284C30.5124 35.8478 30.8384 35.9317 31.1127 35.8284C31.1869 35.8026 31.2515 35.7477 31.2902 35.6832C31.3322 35.6154 31.3451 35.5347 31.3322 35.4572C31.287 35.1635 30.8384 34.7762 30.6963 34.5148C30.8803 34.3599 31.3838 34.2695 31.4935 34.0533C31.529 33.9823 31.5387 33.8983 31.5226 33.8241C31.5032 33.7467 31.4613 33.6756 31.3999 33.6272C30.9836 33.3368 30.4801 33.2077 29.9766 33.2593H29.7281C29.0729 35.6186 26.9105 37.3615 24.3414 37.3615C21.7723 37.3615 19.6099 35.6186 18.9547 33.2561H18.7158H18.6965C18.193 33.2044 17.6895 33.3368 17.2732 33.624C17.2118 33.6724 17.1666 33.7434 17.1505 33.8209C17.1311 33.8983 17.1441 33.979 17.1763 34.05C17.2828 34.2663 17.7896 34.3566 17.9735 34.5116C17.8315 34.773 17.3797 35.1603 17.3377 35.454C17.3248 35.5315 17.3377 35.6122 17.3797 35.6799C17.4216 35.7477 17.4829 35.7993 17.5572 35.8252C17.8315 35.9284 18.1575 35.8445 18.5803 35.8252C18.5803 36.1092 18.519 36.5223 18.6513 36.745C18.6933 36.8128 18.7578 36.8676 18.832 36.8967C18.9063 36.929 18.9902 36.9354 19.0676 36.9161C19.442 36.8547 19.9552 36.3028 20.5394 36.3028C21.7207 36.3028 22.4113 37.8585 22.9568 39.369C20.2618 39.9951 16.9052 41.7993 16.2339 43.7648C15.9886 44.5201 16.8213 45.5238 17.8735 45.7336C17.8799 45.7336 17.8831 45.7336 17.8896 45.7336C17.8896 45.7336 17.8928 45.7336 17.8961 45.7336C17.938 45.7336 17.98 45.7336 17.98 45.6917C18.5254 42.8095 21.6529 40.6374 23.2957 40.2501C23.3764 40.4534 23.3376 40.4147 23.4183 40.6212C21.6561 41.4604 19.9294 43.2194 19.4259 45.314C19.2161 46.2758 20.2683 47.1569 21.1397 47.3667C21.1462 47.3667 21.1526 47.3667 21.1591 47.3667C21.1591 47.3667 21.1623 47.3667 21.1655 47.3667C21.2075 47.3667 21.2494 47.3667 21.2494 47.3248C21.4173 44.704 22.5792 42.4545 23.6249 41.3991C23.6604 41.6024 23.6636 41.8025 23.7056 41.9607C23.7056 41.9607 22.6147 44.9784 22.6147 47.1569C22.6147 48.1639 24.1284 48.8675 24.3285 48.9998C24.3285 48.9998 24.3382 48.9934 24.3414 48.9934C24.3414 48.9934 24.3511 48.9966 24.3543 48.9998C24.5544 48.8675 26.0681 48.1639 26.0681 47.1569C26.0681 44.9784 24.9772 41.9607 24.9772 41.9607C25.0159 41.8025 25.0192 41.5992 25.0579 41.3991C26.1036 42.4545 27.2655 44.704 27.4333 47.3248C27.4333 47.3667 27.4753 47.3667 27.5173 47.3667C27.5173 47.3667 27.5173 47.3667 27.5237 47.3667C27.5302 47.3667 27.5366 47.3667 27.5431 47.3667C28.4145 47.1569 29.4667 46.2758 29.2569 45.314C28.7534 43.2194 27.0267 41.4604 25.2645 40.6212C25.3451 40.4179 25.3064 40.4534 25.3871 40.2501C27.0299 40.6374 30.1606 42.8095 30.706 45.6917C30.706 45.7336 30.748 45.7336 30.7899 45.7336C30.7899 45.7336 30.7899 45.7336 30.7964 45.7336C30.8029 45.7336 30.8061 45.7336 30.8125 45.7336C31.8647 45.5238 32.6974 44.5201 32.4521 43.7648C31.7808 41.7993 28.4242 39.9951 25.7324 39.369L25.7131 39.3722Z" fill="white"/>
<path fill-rule="evenodd" clip-rule="evenodd" d="M29.267 23.958H19.3908C19.2811 23.958 19.1875 24.0484 19.1875 24.1581V31.7234C19.1875 34.5636 21.4887 36.8616 24.3289 36.8616C27.1691 36.8616 29.4671 34.5604 29.4671 31.7234V24.1581C29.4671 24.0484 29.3767 23.958 29.2638 23.958" fill="#007CFA"/>
<path d="M27.0327 27.3823C27.4104 27.7018 27.9752 27.6534 28.2915 27.2758C28.611 26.8982 28.5626 26.3334 28.185 26.0171C27.8073 25.6975 27.2425 25.7459 26.9262 26.1236C26.6067 26.5012 26.6551 27.066 27.0327 27.3823Z" fill="white"/>
<path d="M24.5479 31.7134C24.4769 31.5617 24.2735 31.5359 24.167 31.665L22.1402 34.1082C22.0595 34.205 22.0724 34.3438 22.166 34.4277C22.166 34.4277 22.166 34.4277 22.1692 34.4309C22.266 34.5116 22.4113 34.4987 22.492 34.4019L24.5188 31.9587C24.5737 31.8909 24.5898 31.7973 24.5511 31.7198L24.5479 31.7134Z" fill="white"/>
<path d="M24.0093 31.0972C23.9383 30.9455 23.7349 30.9196 23.6284 31.0487L21.6177 33.4726C21.537 33.5694 21.5499 33.7082 21.6435 33.7921C21.6435 33.7921 21.6435 33.7921 21.6468 33.7954C21.7436 33.876 21.8888 33.8631 21.9695 33.7663L23.9802 31.3424C24.0351 31.2747 24.0512 31.1811 24.0125 31.1036L24.0093 31.0972Z" fill="white"/>
<path d="M23.4639 30.4936C23.3928 30.3419 23.1895 30.3161 23.083 30.4452L21.0884 32.8497C21.0077 32.9465 21.0206 33.0853 21.1142 33.1692C21.1142 33.1692 21.1142 33.1692 21.1175 33.1725C21.2143 33.2532 21.3595 33.2402 21.4402 33.1434L23.4348 30.7389C23.4897 30.6712 23.5058 30.5776 23.4671 30.5001C23.4671 30.5001 23.4671 30.5001 23.4671 30.4969" fill="white"/>
<path d="M24.7996 28.7571C24.8642 28.9023 25.0546 28.9314 25.1611 28.8119L25.6872 28.2213L25.8615 28.373L25.2967 29.054C25.2353 29.1282 25.2224 29.2347 25.2741 29.3187C25.2741 29.3187 25.2741 29.3187 25.2741 29.3219C25.3515 29.4542 25.5355 29.4671 25.6355 29.3509L26.2036 28.6667L26.3746 28.8152L25.8066 29.5252C25.7421 29.6059 25.7388 29.7221 25.8002 29.806C25.8873 29.9222 26.0616 29.9287 26.1519 29.8125L26.7135 29.1121L26.72 29.1024L26.749 29.0637C26.749 29.0637 26.7619 29.0476 26.7619 29.0411L27.0912 28.0309C27.1202 27.9437 27.0912 27.8469 27.0234 27.7856L26.5392 27.3693C26.4682 27.3079 26.3682 27.2982 26.2875 27.3467L25.4322 27.8372C25.4128 27.8501 25.3935 27.8663 25.3773 27.8857L25.3386 27.9308L24.8319 28.5021C24.7706 28.5731 24.7544 28.6732 24.7932 28.7571C24.7932 28.7571 24.7932 28.7603 24.7932 28.7635" fill="white"/>
<path d="M27.9949 32.3591C27.9852 32.3397 27.9723 32.3236 27.9561 32.3107C27.3236 31.8201 26.7523 31.2779 26.3263 30.8615C25.7969 30.3354 25.2902 29.8061 24.8255 29.28C24.2607 28.6474 23.8088 28.1181 23.4086 27.6179C23.031 27.1499 22.5404 26.5237 22.0982 25.8621C22.0563 25.8008 21.9756 25.7846 21.9175 25.8266C21.8562 25.8686 21.84 25.9492 21.882 26.0106C22.3274 26.6819 22.8244 27.3112 23.2053 27.7857C23.6087 28.2892 24.0638 28.8217 24.6318 29.4575C25.0998 29.9869 25.6097 30.5226 26.1455 31.0519C26.5715 31.4683 27.1428 32.0105 27.7786 32.5043C27.798 32.5592 27.7173 32.8335 27.3978 33.195C27.0783 33.5565 26.8297 33.6985 26.7813 33.6694C26.7329 33.5952 26.8427 33.3402 27.1622 32.9788C27.2622 32.8658 27.5301 32.6657 27.3913 32.5463L27.3106 32.4785C27.3106 32.4785 27.2881 32.4559 27.2751 32.4462C26.791 32.0525 26.3456 31.6135 25.9035 31.1778C25.3838 30.6646 24.8803 30.1353 24.3962 29.5899C23.9089 29.0444 23.4312 28.4957 22.9761 27.9245C22.5856 27.4404 22.2015 26.9465 21.8432 26.4301C21.7432 26.2881 21.5463 26.2655 21.4172 26.3817L20.7394 27.0175C20.6136 27.137 20.62 27.3371 20.7556 27.45C21.2365 27.8502 21.6948 28.273 22.1434 28.7023C22.6727 29.2058 23.1794 29.7287 23.6797 30.2612C24.18 30.7905 24.6641 31.3392 25.1321 31.9008C25.5226 32.3752 26.2036 33.2886 26.5619 33.8082C26.5619 33.8082 26.5619 33.8114 26.5651 33.8147C26.5651 33.8179 26.5715 33.8244 26.5748 33.8276C26.5877 33.847 26.5974 33.8566 26.6038 33.8566C26.6167 33.8663 26.6296 33.876 26.6426 33.8825C26.8717 34.0148 27.2784 33.7275 27.5979 33.3661C27.9142 33.0078 28.1466 32.5721 28.0013 32.3558" fill="white"/>
<path d="M67.6416 36.5321V46.0629H87.8103V36.5321L77.7276 27.4466L67.6416 36.5321ZM67.6416 25.9265V34.6666L77.3499 25.9265H67.6416ZM78.1052 25.9265L87.8103 34.6666V25.9265H78.1052ZM89.9308 25.9265L89.9146 32.9657V46.0371C90.1341 46.0274 90.3536 46.0112 90.573 45.9951C101.121 45.1398 109.489 36.5643 110.012 25.9265H89.9275H89.9308ZM89.9308 23.806H110.016C110.009 23.7092 110.006 23.6091 109.999 23.5091C109.341 12.9519 100.749 4.36029 90.1922 3.7051C90.1018 3.69865 90.0147 3.69542 89.9275 3.69219V23.806H89.9308ZM67.7029 23.2186C67.7029 23.2186 67.7029 23.2412 67.7029 23.2509C67.7029 23.2799 67.6997 23.3025 67.6965 23.3283C67.6965 23.3542 67.6965 23.38 67.69 23.4123C67.69 23.4187 67.69 23.4284 67.69 23.4348C67.6836 23.5607 67.6739 23.6834 67.6674 23.806H87.8135V3.68896C77.1305 4.19568 68.5195 12.6162 67.7062 23.2186" fill="white"/>
</svg>
