<svg width="342" height="342" viewBox="0 0 342 342" fill="none" xmlns="http://www.w3.org/2000/svg">
<g clip-path="url(#clip0_213_68)">
<path d="M35.6103 339.71L40.1903 339.69L40.1503 325.43C38.6203 325.44 37.1103 325.43 35.5703 325.39L35.6003 339.7L35.6103 339.71Z" fill="white"/>
<path d="M47.6396 339.74H52.2196L52.1796 325.47C50.6396 325.47 49.1296 325.47 47.5996 325.43L47.6296 339.74H47.6396Z" fill="white"/>
<path d="M59.6699 339.77H64.2499L64.2099 325.49C62.6699 325.5 61.1699 325.49 59.6299 325.45L59.6599 339.76L59.6699 339.77Z" fill="white"/>
<path d="M71.7001 339.8H76.2802L76.2402 325.53C74.7002 325.53 73.2002 325.53 71.6602 325.49L71.6902 339.8H71.7001Z" fill="white"/>
<path d="M83.7304 339.83H88.3104L88.2704 325.55C86.7404 325.56 85.2304 325.55 83.6904 325.51L83.7204 339.82L83.7304 339.83Z" fill="white"/>
<path d="M95.75 339.86H100.33L100.29 325.59C98.75 325.59 97.25 325.59 95.71 325.55L95.74 339.86H95.75Z" fill="white"/>
<path d="M107.78 339.89H112.36L112.32 325.61C110.79 325.62 109.28 325.61 107.74 325.57L107.77 339.88L107.78 339.89Z" fill="white"/>
<path d="M119.81 339.92H124.39L124.35 325.65C122.82 325.65 121.31 325.65 119.77 325.61L119.8 339.92H119.81Z" fill="white"/>
<path d="M131.83 339.95H136.41L136.37 325.67C134.84 325.68 133.33 325.67 131.79 325.63L131.82 339.94L131.83 339.95Z" fill="white"/>
<path d="M143.86 339.98H148.44L148.4 325.71C146.86 325.71 145.36 325.71 143.82 325.67L143.85 339.98H143.86Z" fill="white"/>
<path d="M155.89 340.01H160.47L160.43 325.73C158.89 325.74 157.39 325.73 155.85 325.69L155.88 340L155.89 340.01Z" fill="white"/>
<path d="M167.85 341.78H172.28V306.45C171.79 306.45 171.36 306.47 170.9 306.47C169.88 306.47 168.85 306.45 167.85 306.42V341.77V341.78Z" fill="white"/>
<path d="M181.49 327.16L182.74 341.42L187.17 341.01L185.92 326.81C184.43 326.95 182.98 327.08 181.49 327.17V327.16Z" fill="white"/>
<path d="M195.09 325.65L197.57 339.71L201.93 338.96L199.45 324.93C198.01 325.2 196.55 325.44 195.09 325.66V325.65Z" fill="white"/>
<path d="M208.49 322.97L212.17 336.76L216.46 335.59L212.78 321.85C211.37 322.24 209.93 322.61 208.49 322.97Z" fill="white"/>
<path d="M221.59 319.12L226.47 332.52L230.63 331.01L225.76 317.61C224.4 318.15 223.01 318.63 221.59 319.12Z" fill="white"/>
<path d="M234.31 314.13L240.35 327.06L244.37 325.19L238.35 312.28C237.01 312.91 235.67 313.54 234.31 314.13Z" fill="white"/>
<path d="M246.57 308.06L253.71 320.41L257.53 318.19L250.41 305.84C249.12 306.6 247.85 307.33 246.56 308.06H246.57Z" fill="white"/>
<path d="M258.24 300.92L266.42 312.61L270.03 310.08L261.87 298.41C260.67 299.27 259.45 300.09 258.24 300.92Z" fill="white"/>
<path d="M269.2 292.81L278.41 303.75L281.8 300.91L272.61 289.99C271.49 290.94 270.37 291.89 269.2 292.82V292.81Z" fill="white"/>
<path d="M279.46 283.77L289.57 293.88L292.71 290.76L282.6 280.65C281.58 281.7 280.53 282.74 279.46 283.77Z" fill="white"/>
<path d="M289.98 272.64L300.92 281.8L303.75 278.41L292.81 269.23C291.88 270.38 290.93 271.49 289.98 272.64Z" fill="white"/>
<path d="M298.38 261.87L310.08 270.03L312.61 266.4L300.92 258.21C300.09 259.45 299.26 260.67 298.38 261.86V261.87Z" fill="white"/>
<path d="M305.84 250.42L318.19 257.53L320.4 253.7L308.05 246.57C307.32 247.86 306.59 249.12 305.83 250.42H305.84Z" fill="white"/>
<path d="M312.27 238.36L325.19 244.38L327.06 240.36L314.13 234.32C313.54 235.69 312.91 237.03 312.28 238.37L312.27 238.36Z" fill="white"/>
<path d="M317.63 225.78L331.01 230.64L332.52 226.49L319.12 221.61C318.66 223.01 318.15 224.4 317.63 225.79V225.78Z" fill="white"/>
<path d="M321.85 212.78L335.59 216.46L336.74 212.17L322.97 208.49C322.6 209.93 322.24 211.35 321.85 212.78Z" fill="white"/>
<path d="M324.92 199.46L338.95 201.94L339.71 197.57L325.65 195.1C325.43 196.56 325.19 198.02 324.92 199.46Z" fill="white"/>
<path d="M326.79 185.93L340.99 187.16L341.38 182.75L327.15 181.5C327.05 182.99 326.93 184.46 326.78 185.93H326.79Z" fill="white"/>
<path d="M306.42 167.84C306.44 168.85 306.47 169.88 306.47 170.89C306.47 171.35 306.45 171.82 306.45 172.28H341.77V167.84H306.42Z" fill="white"/>
<path d="M326.62 154.21C326.79 155.67 326.91 157.14 327.03 158.62L341.23 157.38L340.87 152.97L326.62 154.22V154.21Z" fill="white"/>
<path d="M324.6 140.69C324.89 142.14 325.14 143.6 325.38 145.05L339.41 142.58L338.65 138.22L324.59 140.69H324.6Z" fill="white"/>
<path d="M321.38 127.42C321.79 128.83 322.21 130.26 322.58 131.69L336.32 128L335.18 123.72L321.39 127.41L321.38 127.42Z" fill="white"/>
<path d="M317.02 114.46C317.55 115.83 318.07 117.22 318.55 118.62L331.93 113.75L330.42 109.58L317.02 114.45V114.46Z" fill="white"/>
<path d="M311.54 101.94C312.2 103.27 312.83 104.59 313.44 105.94L326.35 99.92L324.47 95.91L311.53 101.94H311.54Z" fill="white"/>
<path d="M305.01 89.95C305.76 91.22 306.49 92.5 307.23 93.77L319.58 86.64L317.36 82.8L305.01 89.94V89.95Z" fill="white"/>
<path d="M297.41 78.58C298.29 79.77 299.14 80.98 299.99 82.19L311.66 74.01L309.12 70.38L297.4 78.58H297.41Z" fill="white"/>
<path d="M288.88 67.9C289.86 69.02 290.83 70.14 291.75 71.29L302.69 62.12L299.84 58.72L288.88 67.9Z" fill="white"/>
<path d="M279.46 58.01C280.53 59.05 281.58 60.08 282.6 61.14L292.71 51.04L289.57 47.9L279.46 58.01Z" fill="white"/>
<path d="M269.2 48.98C270.37 49.91 271.49 50.85 272.61 51.81L281.8 40.88L278.41 38.03L269.2 48.98Z" fill="white"/>
<path d="M258.21 40.86C259.45 41.69 260.67 42.53 261.87 43.39L270.03 31.71L266.42 29.16L258.21 40.85V40.86Z" fill="white"/>
<path d="M246.57 33.74C247.86 34.45 249.13 35.19 250.39 35.93L257.53 23.59L253.71 21.37L246.57 33.73V33.74Z" fill="white"/>
<path d="M234.31 27.65C235.68 28.25 237.02 28.87 238.35 29.5L244.37 16.6L240.35 14.73L234.31 27.65Z" fill="white"/>
<path d="M221.59 22.66C223.01 23.15 224.39 23.65 225.76 24.17L230.63 10.78L226.47 9.27002L221.59 22.66Z" fill="white"/>
<path d="M208.49 18.82C209.93 19.17 211.37 19.54 212.78 19.94L216.46 6.18998L212.17 5.03998L208.49 18.82Z" fill="white"/>
<path d="M195.09 16.13C196.55 16.36 198.01 16.6 199.45 16.87L201.93 2.84002L197.57 2.08002L195.09 16.14V16.13Z" fill="white"/>
<path d="M181.49 14.63C182.98 14.73 184.44 14.85 185.92 14.99L187.17 0.780015L182.74 0.390015L181.49 14.63Z" fill="white"/>
<path d="M167.85 0V35.35L172.29 35.34V0H167.85Z" fill="white"/>
<path d="M152.97 0.919988L154.21 15.16C155.67 15 157.14 14.87 158.62 14.75L157.38 0.549988L152.97 0.929988V0.919988Z" fill="white"/>
<path d="M138.23 3.13L140.69 17.19C142.15 16.91 143.59 16.64 145.06 16.4L142.6 2.37L138.24 3.14L138.23 3.13Z" fill="white"/>
<path d="M123.71 6.60997L127.41 20.39C128.83 19.98 130.24 19.59 131.68 19.21L128 5.46997L123.71 6.61997V6.60997Z" fill="white"/>
<path d="M109.58 11.35L114.46 24.75C115.83 24.21 117.22 23.7 118.62 23.21L113.75 9.82001L109.58 11.34V11.35Z" fill="white"/>
<path d="M95.9102 17.3L101.94 30.24C103.27 29.58 104.6 28.95 105.94 28.34L99.9202 15.44L95.9102 17.3Z" fill="white"/>
<path d="M82.8096 24.42L89.9496 36.79C91.2196 36.02 92.4896 35.28 93.7796 34.55L86.6496 22.21L82.8096 24.43V24.42Z" fill="white"/>
<path d="M70.3799 32.66L78.5799 44.37C79.7699 43.49 80.9699 42.64 82.1999 41.8L74.0099 30.11L70.3799 32.66Z" fill="white"/>
<path d="M58.71 41.94L67.91 52.89C69.02 51.91 70.14 50.96 71.27 50.01L62.11 39.09L58.72 41.94H58.71Z" fill="white"/>
<path d="M47.9102 52.21L58.0202 62.32C59.0402 61.26 60.0802 60.21 61.1402 59.18L51.0402 49.08L47.9102 52.21Z" fill="white"/>
<path d="M39.0898 62.1L50.0198 71.27C50.9698 70.14 51.9198 69.02 52.8998 67.9L41.9498 58.72L39.0998 62.11L39.0898 62.1Z" fill="white"/>
<path d="M30.1104 74.02L41.7904 82.19C42.6304 80.97 43.4904 79.78 44.3604 78.59L32.6404 70.39L30.1104 74.02Z" fill="white"/>
<path d="M22.2002 86.64L34.5402 93.77C35.2702 92.49 36.0102 91.21 36.7802 89.95L24.4102 82.81L22.2002 86.65V86.64Z" fill="white"/>
<path d="M15.4199 99.92L28.3299 105.94C28.9399 104.6 29.5699 103.27 30.2299 101.94L17.2899 95.91L15.4199 99.92Z" fill="white"/>
<path d="M9.83008 113.75L23.2201 118.62C23.7101 117.22 24.2201 115.83 24.7501 114.46L11.3401 109.59L9.83008 113.76V113.75Z" fill="white"/>
<path d="M5.46973 128L19.2197 131.68C19.5897 130.26 19.9797 128.83 20.3897 127.42L6.59973 123.73L5.46973 128.01V128Z" fill="white"/>
<path d="M2.34961 142.58L16.3996 145.05C16.6496 143.59 16.9096 142.14 17.1896 140.69L3.11961 138.22L2.34961 142.58Z" fill="white"/>
<path d="M0.540039 157.38L14.74 158.62C14.86 157.14 15 155.67 15.15 154.21L0.910039 152.96L0.540039 157.37V157.38Z" fill="white"/>
<path d="M0 167.84V172.28H35.34C35.33 171.82 35.33 171.35 35.33 170.89C35.33 169.88 35.34 168.86 35.37 167.84H0Z" fill="white"/>
<path d="M1.45996 181.97V186.55L15.73 186.51C15.73 184.98 15.73 183.47 15.77 181.93L1.45996 181.96V181.97Z" fill="white"/>
<path d="M1.42969 193.99V198.57L15.6997 198.53C15.6997 196.99 15.6997 195.49 15.7397 193.95L1.42969 193.98V193.99Z" fill="white"/>
<path d="M1.40039 206.02V210.6L15.6704 210.56C15.6704 209.02 15.6704 207.52 15.7104 205.98L1.40039 206.01V206.02Z" fill="white"/>
<path d="M1.37012 218.05V222.63L15.6401 222.59C15.6401 221.05 15.6401 219.55 15.6801 218.01L1.37012 218.04V218.05Z" fill="white"/>
<path d="M1.33984 230.07V234.65L15.6098 234.61C15.6098 233.07 15.6098 231.57 15.6498 230.03L1.33984 230.06V230.07Z" fill="white"/>
<path d="M1.30957 242.1V246.68L15.5796 246.64C15.5796 245.11 15.5796 243.6 15.6196 242.06L1.30957 242.09V242.1Z" fill="white"/>
<path d="M1.28027 254.13V258.71L15.5503 258.67C15.5503 257.14 15.5503 255.63 15.5903 254.09L1.28027 254.12V254.13Z" fill="white"/>
<path d="M1.25 266.16V270.74L15.52 270.7C15.52 269.17 15.52 267.66 15.56 266.12L1.25 266.15V266.16Z" fill="white"/>
<path d="M1.21973 278.18V282.76L15.4897 282.72C15.4897 281.18 15.4897 279.68 15.5297 278.14L1.21973 278.17V278.18Z" fill="white"/>
<path d="M1.19043 290.21V294.79L15.4604 294.75C15.4604 293.21 15.4604 291.71 15.5004 290.17L1.19043 290.2V290.21Z" fill="white"/>
<path d="M1.16016 302.24V306.82L15.4402 306.78C15.4302 305.24 15.4402 303.74 15.4802 302.2L1.17016 302.23L1.16016 302.24Z" fill="white"/>
<path d="M0 337.99L3.13 341.13L28.12 316.14C27.79 315.82 27.46 315.49 27.13 315.17C26.41 314.46 25.7 313.72 25 312.99L0 337.99Z" fill="white"/>
</g>
<defs>
<clipPath id="clip0_213_68">
<rect width="341.77" height="341.78" fill="white"/>
</clipPath>
</defs>
</svg>
