<svg width="25" height="24" viewBox="0 0 25 24" fill="none" xmlns="http://www.w3.org/2000/svg">
<g clip-path="url(#clip0_508_512)">
<path fill-rule="evenodd" clip-rule="evenodd" d="M20.5271 4.42997C20.7743 4.32596 21.0447 4.29008 21.3104 4.32608C21.5761 4.36208 21.8273 4.46863 22.0378 4.63465C22.2484 4.80067 22.4106 5.02008 22.5075 5.27005C22.6045 5.52002 22.6327 5.79141 22.5891 6.05597L20.3211 19.813C20.1011 21.14 18.6451 21.901 17.4281 21.24C16.4101 20.687 14.8981 19.835 13.5381 18.946C12.8581 18.501 10.7751 17.076 11.0311 16.062C11.2511 15.195 14.7511 11.937 16.7511 9.99997C17.5361 9.23897 17.1781 8.79997 16.2511 9.49997C13.9481 11.238 10.2531 13.881 9.03114 14.625C7.95314 15.281 7.39114 15.393 6.71914 15.281C5.49314 15.077 4.35614 14.761 3.42814 14.376C2.17414 13.856 2.23514 12.132 3.42714 11.63L20.5271 4.42997Z" fill="white"/>
</g>
<defs>
<clipPath id="clip0_508_512">
<rect width="24" height="24" fill="white" transform="translate(0.75)"/>
</clipPath>
</defs>
</svg>
