<svg width="24" height="24" viewBox="0 0 24 24" fill="none" xmlns="http://www.w3.org/2000/svg">
<path fill-rule="evenodd" clip-rule="evenodd" d="M14.1465 3.76677C12.9694 2.56131 11.0307 2.56131 9.85363 3.76677L9.2654 4.36918C9.07433 4.56485 8.81147 4.67374 8.53801 4.67048L7.69609 4.66045C6.01138 4.64038 4.6405 6.01126 4.66057 7.69597L4.6706 8.53789C4.67386 8.81135 4.56498 9.07421 4.36931 9.26527L3.76689 9.85351C2.56143 11.0306 2.56143 12.9693 3.76689 14.1464L4.36931 14.7346C4.56498 14.9257 4.67386 15.1885 4.6706 15.462L4.66057 16.3039C4.6405 17.9886 6.01138 19.3595 7.69609 19.3394L8.53801 19.3294C8.81147 19.3262 9.07433 19.435 9.2654 19.6307L9.85363 20.2331C11.0307 21.4386 12.9694 21.4386 14.1465 20.2331L14.7347 19.6307C14.9258 19.435 15.1887 19.3262 15.4621 19.3294L16.304 19.3394C17.9888 19.3595 19.3596 17.9886 19.3396 16.3039L19.3295 15.462C19.3263 15.1885 19.4352 14.9257 19.6308 14.7346L20.2332 14.1464C21.4387 12.9693 21.4387 11.0306 20.2332 9.85351L19.6308 9.26527C19.4352 9.07421 19.3263 8.81135 19.3295 8.53789L19.3396 7.69597C19.3596 6.01126 17.9888 4.64038 16.304 4.66045L15.4621 4.67048C15.1887 4.67374 14.9258 4.56485 14.7347 4.36918L14.1465 3.76677ZM11.2846 5.16404C11.6769 4.76222 12.3232 4.76222 12.7155 5.16404L13.3038 5.76645C13.877 6.35346 14.6656 6.68011 15.4859 6.67034L16.3279 6.66031C16.8894 6.65362 17.3464 7.11058 17.3397 7.67215L17.3297 8.51406C17.3199 9.33445 17.6465 10.123 18.2336 10.6962L18.836 11.2845C19.2378 11.6768 19.2378 12.3231 18.836 12.7154L18.2336 13.3037C17.6465 13.8768 17.3199 14.6654 17.3297 15.4858L17.3397 16.3277C17.3464 16.8893 16.8894 17.3463 16.3279 17.3396L15.4859 17.3296C14.6656 17.3198 13.877 17.6464 13.3038 18.2334L12.7155 18.8359C12.3232 19.2377 11.6769 19.2377 11.2846 18.8359L10.6964 18.2334C10.1232 17.6464 9.33457 17.3198 8.51419 17.3296L7.67227 17.3396C7.1107 17.3463 6.65374 16.8893 6.66043 16.3277L6.67046 15.4858C6.68023 14.6654 6.35358 13.8768 5.76657 13.3037L5.16416 12.7154C4.76234 12.3231 4.76234 11.6768 5.16416 11.2845L5.76658 10.6962C6.35359 10.123 6.68023 9.33445 6.67046 8.51406L6.66043 7.67215C6.65374 7.11058 7.1107 6.65362 7.67227 6.66031L8.51419 6.67034C9.33457 6.68011 10.1232 6.35346 10.6964 5.76645L11.2846 5.16404ZM15.7072 10.7071C16.0977 10.3165 16.0977 9.68336 15.7072 9.29284C15.3166 8.90231 14.6835 8.90231 14.293 9.29284L11.0001 12.5857L9.70717 11.2928C9.31665 10.9023 8.68348 10.9023 8.29296 11.2928C7.90244 11.6834 7.90244 12.3165 8.29296 12.7071L10.293 14.7071L11.0001 15.4142L11.7072 14.7071L15.7072 10.7071Z" fill="url(#paint0_linear_300_4523)"/>
<defs>
<linearGradient id="paint0_linear_300_4523" x1="20.1343" y1="1.66493" x2="-3.68402" y2="25.5201" gradientUnits="userSpaceOnUse">
<stop stop-color="#42FFD8"/>
<stop offset="0.29" stop-color="#00C8FB"/>
<stop offset="0.68" stop-color="#2791FA"/>
<stop offset="1" stop-color="#007CF9"/>
</linearGradient>
</defs>
</svg>
