<svg width="34" height="32" viewBox="0 0 34 32" fill="none" xmlns="http://www.w3.org/2000/svg">
<path d="M0.630859 20.4631C0.880371 19.3084 1.68009 18.6398 2.68454 18.1664C3.18996 17.9296 3.69218 17.6673 4.22639 17.5202C7.6076 16.5893 10.88 16.7109 13.935 18.6398C14.6483 19.0876 15.0674 19.7306 15.1569 20.5783C15.2593 21.5668 14.9074 22.3857 14.1045 22.9487C12.665 23.9627 11.056 24.5353 9.29661 24.6729C7.79953 24.7912 6.31206 24.7752 4.85017 24.3914C3.73697 24.0971 2.69733 23.6364 1.75046 22.9807C1.19386 22.5936 0.832388 22.0626 0.698035 21.3876C0.688439 21.3332 0.653251 21.2853 0.630859 21.2341C0.630859 20.9782 0.630859 20.7191 0.630859 20.4631ZM7.8891 22.488C7.8955 22.52 7.8987 22.552 7.90509 22.584C8.83277 22.4368 9.77324 22.3377 10.6849 22.1266C11.4175 21.9602 12.1436 21.7139 12.7226 21.1893C13.0169 20.9206 13.0489 20.751 12.729 20.5463C12.2172 20.2168 11.6734 19.9161 11.104 19.705C9.61969 19.158 8.06824 19.1388 6.51679 19.2892C5.46756 19.3915 4.45991 19.6922 3.53544 20.204C3.27633 20.348 2.90526 20.6423 2.92445 20.8374C2.94684 21.0805 3.31471 21.2949 3.53864 21.5156C3.57062 21.5476 3.62181 21.5572 3.66339 21.5796C4.99732 22.2353 6.41122 22.504 7.8891 22.488Z" fill="url(#paint0_linear_60_3685)"/>
<path d="M6.93918 31.3968C6.35378 31.3041 5.76519 31.2305 5.18619 31.1121C3.93224 30.853 2.73906 30.4372 1.72821 29.6119C1.37634 29.324 1.04366 29.0041 1.03726 28.4891C1.03086 28.022 1.22919 27.6797 1.63545 27.4622C2.0609 27.2319 2.52473 27.2511 2.83822 27.5902C3.81068 28.6394 5.11262 28.8793 6.41136 29.0616C8.16435 29.308 9.90773 29.18 11.5679 28.5178C12.0094 28.3419 12.4252 28.054 12.7867 27.7405C13.3177 27.2799 13.9415 27.2095 14.4181 27.6509C14.8884 28.0892 14.898 28.7578 14.4245 29.276C13.6408 30.1365 12.614 30.5875 11.5296 30.8818C10.7458 31.0961 9.93332 31.1857 9.1336 31.3328C9.03124 31.352 8.92888 31.3776 8.82971 31.3968H6.93598H6.93918Z" fill="url(#paint1_linear_60_3685)"/>
<path d="M30.9117 9.19036H30.4127C22.5626 9.19036 14.7126 9.18716 6.86258 9.19676C5.92531 9.19676 5.02963 9.08799 4.20432 8.62096C4.17553 8.60497 4.13714 8.61136 4.06997 8.60177C4.06997 8.73612 4.06997 8.86088 4.06997 8.98563C4.06997 11.1577 4.06997 13.3297 4.06997 15.5049C4.06997 16.0136 3.77887 16.4326 3.33103 16.5862C2.86719 16.7461 2.33938 16.5989 2.06428 16.1703C1.92992 15.956 1.84355 15.6713 1.84035 15.4186C1.82756 11.8198 1.81156 8.2243 1.84035 4.62557C1.85955 1.9929 3.90363 0 6.5363 0C13.8265 0 21.1168 0 28.4038 0C29.002 0 29.405 0.259108 29.5874 0.745337C29.7505 1.18998 29.6418 1.6954 29.2419 1.96091C29.0052 2.11765 28.6853 2.22322 28.4038 2.22641C26.4173 2.24881 24.4308 2.23921 22.4475 2.23921C17.1214 2.23921 11.792 2.23921 6.46592 2.23921C5.23116 2.23921 4.23631 3.1221 4.07956 4.35047C3.93561 5.46687 4.69375 6.58648 5.82935 6.89037C6.11725 6.96714 6.42754 6.98954 6.72823 6.98954C15.0581 6.99593 23.388 6.99273 31.7146 6.99273C32.7958 6.99273 33.1573 7.35741 33.1573 8.44182C33.1573 13.3489 33.1733 18.2528 33.1509 23.1598C33.1413 25.0632 32.2488 26.4739 30.5502 27.3536C29.9392 27.6702 29.2803 27.8174 28.5957 27.8174C24.7187 27.8206 20.8385 27.8206 16.9614 27.8174C16.2481 27.8174 15.765 27.344 15.7682 26.6786C15.7746 26.0228 16.2673 25.575 16.9902 25.575C20.8001 25.575 24.6067 25.575 28.4166 25.575C29.9105 25.575 30.9149 24.5705 30.9149 23.0735C30.9149 18.5886 30.9149 14.1038 30.9149 9.61581V9.18716L30.9117 9.19036Z" fill="url(#paint2_linear_60_3685)"/>
<path d="M21.5707 5.72917C19.3059 5.72917 17.0411 5.72917 14.7763 5.72917C14.0854 5.72917 13.6599 5.42528 13.5128 4.85588C13.3432 4.18732 13.8422 3.51555 14.5396 3.50276C15.077 3.48996 15.6144 3.50276 16.1518 3.50276C20.272 3.50276 24.3953 3.50276 28.5155 3.50276C29.0753 3.50276 29.5487 3.88662 29.6447 4.40484C29.7406 4.90706 29.4655 5.43808 28.9761 5.62041C28.7522 5.70358 28.4995 5.72917 28.2596 5.73237C26.03 5.74197 23.8003 5.73557 21.5707 5.73557V5.72917Z" fill="url(#paint3_linear_60_3685)"/>
<path d="M8.58348 28.195C6.09156 28.1822 4.33538 27.9135 2.72635 27.0562C2.23052 26.7907 1.77308 26.4293 1.36363 26.039C0.871002 25.572 0.915787 24.8618 1.38922 24.4236C1.85945 23.9917 2.51842 24.0173 2.97586 24.5227C3.64442 25.2617 4.55291 25.508 5.45819 25.6999C7.55025 26.1446 9.63271 26.087 11.6448 25.2969C12.0639 25.1305 12.4541 24.8426 12.7964 24.5387C13.2986 24.0877 13.9672 24.0173 14.431 24.446C14.8917 24.8714 14.9141 25.5304 14.4662 26.0486C13.8584 26.7427 13.0587 27.1522 12.211 27.4689C10.8195 27.9903 9.3768 28.2078 8.58348 28.1982V28.195Z" fill="url(#paint4_linear_60_3685)"/>
<path d="M23.9023 16.8262C23.9023 15.873 24.6669 15.0861 25.6169 15.0701C26.567 15.0541 27.3731 15.8602 27.3667 16.8262C27.3603 17.7795 26.5766 18.5632 25.6361 18.5632C24.6893 18.5632 23.9055 17.7763 23.9023 16.8262Z" fill="url(#paint5_linear_60_3685)"/>
<path d="M8.766 5.74824C8.31496 5.72904 7.85752 5.74184 7.40968 5.67786C6.7891 5.58829 6.45002 5.07967 6.51719 4.4335C6.57157 3.91208 7.04181 3.50263 7.60801 3.49943C8.38853 3.49303 9.17226 3.49303 9.95278 3.49943C10.5478 3.50582 11.0084 3.94727 11.0564 4.54546C11.1012 5.07327 10.6981 5.60428 10.1319 5.68106C9.68408 5.74184 9.22664 5.72904 8.766 5.74824Z" fill="url(#paint6_linear_60_3685)"/>
<defs>
<linearGradient id="paint0_linear_60_3685" x1="29.5263" y1="-3.522" x2="-6.47064" y2="37.0909" gradientUnits="userSpaceOnUse">
<stop stop-color="#42FFD8"/>
<stop offset="0.29" stop-color="#00C8FB"/>
<stop offset="0.68" stop-color="#2791FA"/>
<stop offset="1" stop-color="#007CF9"/>
</linearGradient>
<linearGradient id="paint1_linear_60_3685" x1="33.2915" y1="-0.185638" x2="-2.70542" y2="40.4272" gradientUnits="userSpaceOnUse">
<stop stop-color="#42FFD8"/>
<stop offset="0.29" stop-color="#00C8FB"/>
<stop offset="0.68" stop-color="#2791FA"/>
<stop offset="1" stop-color="#007CF9"/>
</linearGradient>
<linearGradient id="paint2_linear_60_3685" x1="31.4427" y1="-1.82336" x2="-4.55419" y2="38.7895" gradientUnits="userSpaceOnUse">
<stop stop-color="#42FFD8"/>
<stop offset="0.29" stop-color="#00C8FB"/>
<stop offset="0.68" stop-color="#2791FA"/>
<stop offset="1" stop-color="#007CF9"/>
</linearGradient>
<linearGradient id="paint3_linear_60_3685" x1="29.1041" y1="-3.89944" x2="-6.89605" y2="36.7135" gradientUnits="userSpaceOnUse">
<stop stop-color="#42FFD8"/>
<stop offset="0.29" stop-color="#00C8FB"/>
<stop offset="0.68" stop-color="#2791FA"/>
<stop offset="1" stop-color="#007CF9"/>
</linearGradient>
<linearGradient id="paint4_linear_60_3685" x1="31.7049" y1="-1.59285" x2="-4.29196" y2="39.02" gradientUnits="userSpaceOnUse">
<stop stop-color="#42FFD8"/>
<stop offset="0.29" stop-color="#00C8FB"/>
<stop offset="0.68" stop-color="#2791FA"/>
<stop offset="1" stop-color="#007CF9"/>
</linearGradient>
<linearGradient id="paint5_linear_60_3685" x1="37.4432" y1="3.49334" x2="1.44624" y2="44.1062" gradientUnits="userSpaceOnUse">
<stop stop-color="#42FFD8"/>
<stop offset="0.29" stop-color="#00C8FB"/>
<stop offset="0.68" stop-color="#2791FA"/>
<stop offset="1" stop-color="#007CF9"/>
</linearGradient>
<linearGradient id="paint6_linear_60_3685" x1="21.939" y1="-10.2493" x2="-14.0612" y2="30.3636" gradientUnits="userSpaceOnUse">
<stop stop-color="#42FFD8"/>
<stop offset="0.29" stop-color="#00C8FB"/>
<stop offset="0.68" stop-color="#2791FA"/>
<stop offset="1" stop-color="#007CF9"/>
</linearGradient>
</defs>
</svg>
